<?xml version="1.0" encoding="iso-8859-1"?>
<!-- Generator: Adobe Illustrator 18.1.1, SVG Export Plug-In . SVG Version: 6.00 Build 0)  -->
<svg version="1.1" id="Capa_1" xmlns="http://www.w3.org/2000/svg" xmlns:xlink="http://www.w3.org/1999/xlink" x="0px" y="0px"
	 viewBox="0 0 63.58 63.58" style="enable-background:new 0 0 63.58 63.58;" xml:space="preserve">
<g>
	<g>
		<circle style="fill:#010002;" cx="17.146" cy="6.227" r="5.922"/>
		<path style="fill:#010002;" d="M62.382,27.448c-3.444-2.482-6.372-6.814-8.625-10.818c-0.851-1.511-2.448-2.448-4.183-2.448
			h-6.281c-1.733,0-3.333,0.937-4.183,2.448c-1.963,3.488-4.438,7.223-7.32,9.77c-2.882-2.546-5.358-6.281-7.32-9.77
			c-0.851-1.511-2.449-2.448-4.182-2.448h-6.283c-1.733,0-3.332,0.937-4.182,2.448c-2.252,4.004-5.181,8.336-8.624,10.818
			c-2.842,2.046-0.107,6.807,2.767,4.734c2.84-2.045,5.424-4.356,7.651-6.976c0,15.854-1.292,27.625-1.317,35.417
			c-0.011,3.538,5.472,3.534,5.484,0c0.021-6.885,0.428-13.753,1.057-20.605h0.613c0.63,6.853,1.036,13.721,1.058,20.605
			c0.012,3.534,5.495,3.538,5.483,0c-0.025-7.792-1.317-19.563-1.317-35.417c2.228,2.619,4.811,4.93,7.651,6.976
			c0.931,0.669,2.017,0.652,2.924,0c2.84-2.045,5.424-4.356,7.651-6.976c0,15.854-1.293,27.625-1.317,35.417
			c-0.011,3.538,5.473,3.534,5.485,0c0.02-6.885,0.426-13.753,1.056-20.605h0.613c0.63,6.853,1.036,13.721,1.057,20.605
			c0.013,3.534,5.495,3.538,5.484,0c-0.024-7.792-1.317-19.563-1.317-35.417c2.228,2.619,4.811,4.93,7.651,6.976
			C62.489,34.255,65.223,29.495,62.382,27.448z"/>
		<circle style="fill:#010002;" cx="46.433" cy="6.227" r="5.922"/>
	</g>
</g>
<g>
</g>
<g>
</g>
<g>
</g>
<g>
</g>
<g>
</g>
<g>
</g>
<g>
</g>
<g>
</g>
<g>
</g>
<g>
</g>
<g>
</g>
<g>
</g>
<g>
</g>
<g>
</g>
<g>
</g>
</svg>
