<?xml version="1.0" encoding="iso-8859-1"?>
<!-- Generator: Adobe Illustrator 19.0.0, SVG Export Plug-In . SVG Version: 6.00 Build 0)  -->
<svg version="1.1" id="Capa_1" xmlns="http://www.w3.org/2000/svg" xmlns:xlink="http://www.w3.org/1999/xlink" x="0px" y="0px"
	 viewBox="0 0 512.002 512.002" style="enable-background:new 0 0 512.002 512.002;" xml:space="preserve">
<g>
	<g>
		<path d="M178.707,234.23h-17.645c-2.924,0-4.134,2.924-4.134,5.646c0,3.126,1.512,5.848,4.134,5.848h10.285v39.727
			c0,7.865-3.832,11.596-10.688,11.596c-8.167,0-10.184-5.747-10.386-10.789c-0.302-3.227-3.126-4.134-6.554-4.134
			c-4.436,0-6.554,1.311-6.554,6.352c0,12.503,10.083,20.065,24.099,20.065c12.704,0,23.191-6.251,23.191-23.09v-47.087
			C184.455,235.642,181.632,234.23,178.707,234.23z"/>
	</g>
</g>
<g>
	<g>
		<path d="M237.795,234.23c-3.327,0-6.554,1.21-6.554,4.033v47.188c0,7.865-4.134,11.596-11.091,11.596
			c-6.957,0-11.091-3.731-11.091-11.596v-47.188c0-2.823-3.327-4.033-6.554-4.033c-3.327,0-6.554,1.21-6.554,4.033v47.188
			c0,16.839,10.587,23.09,24.199,23.09c13.511,0,24.199-6.251,24.199-23.09v-47.188C244.349,235.44,241.021,234.23,237.795,234.23z"
			/>
	</g>
</g>
<g>
	<g>
		<path d="M267.444,252.682c0-4.84,4.134-7.764,11.393-7.764c8.47,0,10.789,3.832,13.915,3.832c3.63,0,5.243-4.638,5.243-6.957
			c0-6.655-13.208-8.067-19.158-8.067c-11.595,0-24.501,5.143-24.501,20.166c0,23.896,32.367,19.258,32.367,34.383
			c-0.001,6.05-5.244,8.772-11.294,8.772c-10.285,0-13.008-7.764-17.142-7.764c-3.125,0-5.747,4.235-5.747,7.058
			c0,5.848,10.083,12.503,23.292,12.503c13.915,0,23.998-7.461,23.998-21.88C299.81,260.849,267.444,265.184,267.444,252.682z"/>
	</g>
</g>
<g>
	<g>
		<path d="M350.732,234.23H308.08c-2.823,0-4.134,3.025-4.134,5.848c0,3.227,1.513,5.949,4.134,5.949h14.822v57.776
			c0,2.722,3.227,4.134,6.555,4.134c3.226,0,6.554-1.412,6.554-4.134v-57.776h14.721c2.621,0,4.134-2.823,4.134-5.949
			C354.866,237.255,353.555,234.23,350.732,234.23z"/>
	</g>
</g>
<g>
	<g>
		<path d="M123.599,355.233c-4.739,0-6.957,1.008-10.285,6.957l-12.402,22.586l-12.401-22.585
			c-3.328-5.949-5.445-6.957-10.184-6.957c-3.327,0-6.554,1.714-6.554,6.554v63.019c0,2.722,3.227,4.134,6.554,4.134
			c3.227,0,6.554-1.412,6.554-4.134v-44.164l11.596,21.78c1.109,2.016,2.722,2.622,4.336,2.622c1.613,0,3.327-0.605,4.436-2.622
			l11.797-20.973v43.357c-0.001,2.722,3.226,4.133,6.553,4.133c3.227,0,6.554-1.412,6.554-4.134v-63.019
			C130.153,356.947,126.926,355.233,123.599,355.233z"/>
	</g>
</g>
<g>
	<g>
		<path d="M193.073,422.487l-19.46-63.422c-0.908-3.025-4.638-4.436-8.47-4.436c-3.731,0-7.462,1.411-8.369,4.436l-19.46,63.422
			c-0.101,0.403-0.202,0.807-0.202,1.008c0.002,3.227,4.741,5.445,8.27,5.445c2.218,0,3.933-0.706,4.436-2.622l3.832-13.411h23.09
			l3.831,13.411c0.504,1.916,2.218,2.622,4.436,2.622c3.529,0,8.268-2.319,8.268-5.445
			C193.275,423.193,193.174,422.89,193.073,422.487z M156.372,402.624l8.773-30.955l8.772,30.955H156.372z"/>
	</g>
</g>
<g>
	<g>
		<path d="M248.334,420.974l-13.209-24.502c7.562-2.318,13.209-8.569,13.209-20.165c0-16.032-10.688-21.074-23.897-21.074h-19.964
			c-2.521,0-4.235,1.915-4.235,4.033v65.54c0,2.722,3.327,4.134,6.554,4.134c3.327,0,6.554-1.412,6.554-4.134v-26.317h8.47
			l14.318,27.829c1.008,2.017,2.722,3.126,4.537,3.126c3.832,0,8.167-3.529,8.167-6.857
			C248.838,422.184,248.737,421.478,248.334,420.974z M224.437,388.205h-11.091v-21.477h11.091c6.554,0,10.789,2.823,10.789,10.789
			S230.99,388.205,224.437,388.205z"/>
	</g>
</g>
<g>
	<g>
		<path d="M305.809,420.975l-13.208-24.502c7.562-2.319,13.208-8.57,13.208-20.166c0-16.032-10.688-21.073-23.896-21.073h-19.964
			c-2.521,0-4.236,1.915-4.236,4.033v65.54c0,2.722,3.328,4.134,6.554,4.134c3.328,0,6.555-1.412,6.555-4.134V398.49h8.469
			l14.317,27.829c1.009,2.017,2.723,3.126,4.538,3.126c3.832,0,8.167-3.529,8.167-6.857
			C306.313,422.185,306.212,421.479,305.809,420.975z M281.913,388.205h-11.091v-21.477h11.091c6.554,0,10.788,2.823,10.788,10.789
			C292.702,385.483,288.467,388.205,281.913,388.205z"/>
	</g>
</g>
<g>
	<g>
		<path d="M321.743,355.234c-3.327,0-6.554,1.21-6.554,4.033v65.54c0,2.722,3.227,4.134,6.554,4.134
			c3.227,0,6.555-1.412,6.555-4.134v-65.54C328.298,356.444,324.97,355.234,321.743,355.234z"/>
	</g>
</g>
<g>
	<g>
		<path d="M382.042,417.447h-28.534V397.18h15.326c2.823,0,4.134-2.723,4.134-5.041c0-2.723-1.513-5.243-4.134-5.243h-15.326V366.73
			h28.534v-0.002c2.622,0,4.134-2.722,4.134-5.848c0-2.722-1.311-5.646-4.134-5.646h-35.895c-2.924,0-5.747,1.412-5.747,4.134
			v65.439c0,2.722,2.823,4.134,5.747,4.134h35.895c2.823,0,4.134-2.924,4.134-5.646
			C386.176,420.169,384.664,417.447,382.042,417.447z"/>
	</g>
</g>
<g>
	<g>
		<path d="M417.436,355.233h-17.847v0.001c-3.428,0-5.747,1.915-5.747,4.033v65.64c0,2.117,2.319,4.033,5.747,4.033h17.847
			c13.309,0,23.695-6.251,23.695-23.09v-27.527C441.131,361.485,430.745,355.233,417.436,355.233z M428.023,405.85
			c0,7.865-3.933,11.596-10.587,11.596H406.95v-50.717h10.486c6.655-0.001,10.587,3.73,10.587,11.594V405.85z"/>
	</g>
</g>
<g>
	<g>
		<path d="M504.494,346.706c-4.146,0-7.506,3.36-7.506,7.506v87.077c0,18.854-15.339,34.192-34.192,34.192H49.203
			c-18.854,0-34.192-15.338-34.192-34.192v-86.055c0-4.145-3.36-7.506-7.506-7.506S0,351.088,0,355.234v86.055
			c0,27.131,22.072,49.203,49.203,49.203h413.594c27.131,0,49.203-22.072,49.203-49.203v-87.077
			C512,350.067,508.64,346.706,504.494,346.706z"/>
	</g>
</g>
<g>
	<g>
		<path d="M462.797,183.009H404.12L285.034,56.975c1.877-9.396-0.814-19.531-8.083-26.8c-11.552-11.553-30.35-11.553-41.903,0
			c-5.597,5.597-8.679,13.037-8.679,20.951c0,1.993,0.197,3.956,0.579,5.867L107.88,183.009H49.203
			C22.072,183.009,0,205.082,0,232.212v85.865c0,4.145,3.36,7.506,7.506,7.506s7.506-3.36,7.506-7.506v-85.865
			c0-18.854,15.338-34.192,34.192-34.192h413.594c18.853,0,34.192,15.338,34.192,34.192v86.266c0,4.145,3.36,7.506,7.506,7.506
			c4.146,0,7.506-3.36,7.506-7.506v-86.266C512,205.082,489.928,183.009,462.797,183.009z M245.663,40.789
			c2.85-2.85,6.593-4.275,10.337-4.275c3.743,0,7.487,1.425,10.337,4.275c5.7,5.7,5.7,14.975,0,20.674
			c-2.761,2.761-6.432,4.282-10.337,4.282c-3.905,0-7.576-1.521-10.337-4.282c-2.761-2.761-4.282-6.433-4.282-10.337
			S242.902,43.551,245.663,40.789z M128.532,183.01L128.532,183.01L234.195,71.182c0.279,0.303,0.561,0.604,0.854,0.897
			c5.596,5.597,13.037,8.679,20.951,8.679s15.355-3.082,20.952-8.679c0.293-0.293,0.574-0.595,0.853-0.897L383.468,183.01H128.532z"
			/>
	</g>
</g>
<g>
	<g>
		<path d="M118.166,248.399c-2.651-6.674-7.743-11.916-14.338-14.761c-6.595-2.844-13.902-2.951-20.577-0.299
			c-5.164,2.052-9.458,5.561-12.443,10.046c-5.249-1.214-10.781-0.819-15.944,1.231c-13.778,5.474-20.535,21.137-15.061,34.916
			c10.602,26.685,50.308,27.173,53.118,27.173c0.042,0,0.075,0,0.1,0c1.889-0.01,3.704-0.731,5.084-2.02
			C99.369,303.505,128.924,275.48,118.166,248.399z M99.235,279.464c-3.251,5.314-6.992,9.656-9.269,12.098
			c-8.148-0.549-30.562-3.352-36.211-17.572c-2.418-6.086,0.566-13.004,6.652-15.422c1.424-0.566,2.911-0.846,4.393-0.846
			c2.074,0,4.137,0.549,5.993,1.634c1.993,1.163,4.411,1.347,6.557,0.494c2.145-0.852,3.779-2.644,4.43-4.859
			c1.039-3.536,3.595-6.343,7.014-7.701c2.949-1.172,6.178-1.124,9.089,0.132c2.913,1.256,5.162,3.572,6.333,6.52
			C106.994,260.935,105.318,269.521,99.235,279.464z"/>
	</g>
</g>
<g>
	<g>
		<path d="M457.136,244.617c-5.164-2.053-10.698-2.448-15.945-1.232c-2.984-4.485-7.279-7.994-12.442-10.046
			c-6.673-2.65-13.981-2.546-20.577,0.299c-6.595,2.845-11.687,8.087-14.338,14.762c-10.759,27.081,18.797,55.106,20.061,56.286
			c1.38,1.289,3.195,2.01,5.083,2.02c0.025,0,0.059,0,0.101,0c2.814-0.001,42.516-0.49,53.117-27.174
			C477.67,265.754,470.914,250.091,457.136,244.617z M458.246,273.99c-2.778,6.992-9.89,12.088-21.138,15.145
			c-6.01,1.634-11.712,2.225-15.045,2.438c-5.549-5.99-19.928-23.411-14.279-37.631c1.848-4.652,6.326-7.492,11.051-7.492
			c1.457,0,2.937,0.27,4.37,0.84c0,0,0,0,0.001,0c3.418,1.358,5.974,4.165,7.014,7.701c0.651,2.215,2.284,4.006,4.43,4.859
			c2.141,0.851,4.562,0.67,6.556-0.494c3.182-1.859,6.97-2.147,10.386-0.788C457.679,260.986,460.663,267.904,458.246,273.99z"/>
	</g>
</g>
<g>
</g>
<g>
</g>
<g>
</g>
<g>
</g>
<g>
</g>
<g>
</g>
<g>
</g>
<g>
</g>
<g>
</g>
<g>
</g>
<g>
</g>
<g>
</g>
<g>
</g>
<g>
</g>
<g>
</g>
</svg>
