<svg height="618pt" viewBox="-29 -19 618 618.66669" width="618pt" xmlns="http://www.w3.org/2000/svg"><path d="m89.667969 270c-49.683594.054688-89.949219 40.316406-90 90 0 38.890625 58.996093 129.539062 90 173 31-43.460938 90-134.117188 90-173-.054688-49.683594-40.320313-89.945312-90-90zm0 150c-33.136719 0-60-26.867188-60-60s26.863281-60 60-60c33.132812 0 60 26.867188 60 60-.035157 33.125-26.875 59.964844-60 60zm0 0"/><path d="m129.667969 360c0 22.089844-17.910157 40-40 40-22.089844 0-40-17.910156-40-40s17.910156-40 40-40c22.089843 0 40 17.910156 40 40zm0 0"/><path d="m559.667969 90c0-49.707031-40.292969-90-90-90s-90 40.292969-90 90c0 38.890625 58.996093 129.539062 90 173 31-43.46875 90-134.128906 90-173zm-150 0c0-33.132812 26.863281-60 60-60 33.132812 0 60 26.867188 60 60s-26.867188 60-60 60c-33.125-.035156-59.96875-26.875-60-60zm0 0"/><path d="m509.667969 90c0 22.089844-17.910157 40-40 40-22.089844 0-40-17.910156-40-40s17.910156-40 40-40c22.089843 0 40 17.910156 40 40zm0 0"/><path d="m342.605469 308c-20.886719 17.0625-32.984375 42.621094-32.9375 69.585938v72.414062c-.074219 60.722656-49.277344 109.925781-110 110h-90v20h90c71.761719-.082031 129.914062-58.238281 130-130v-72.414062c.011719-20.960938 9.421875-40.8125 25.636719-54.09375 16.21875-13.289063 37.535156-18.605469 58.09375-14.492188l54.265624 10.800781 3.921876-19.601562-54.296876-10.859375c-26.4375-5.3125-53.851562 1.539062-74.683593 18.660156zm0 0"/></svg>