<svg id="_x33_0" enable-background="new 0 0 64 64" height="512" viewBox="0 0 64 64" width="512" xmlns="http://www.w3.org/2000/svg"><g><path d="m45 26h-2c0 1.008-.408 1.994-1.121 2.707l-.126.126c-.791-.524-1.736-.833-2.753-.833s-1.962.309-2.753.833l-.126-.126c-.713-.713-1.121-1.699-1.121-2.707h-2c0 1.534.622 3.036 1.707 4.121l.126.126c-.157.237-.294.49-.409.753h-6.424c-1.383 0-2.636.566-3.542 1.477-.654-.517-1.187-1.171-1.563-1.924l-1.789.895c.535 1.072 1.312 1.985 2.26 2.699-.231.574-.366 1.197-.366 1.853 0 1.627.793 3.061 2 3.974v7.026h2v-6.101c.323.066.658.101 1 .101h6v6h2v-6h2v6h2v-8.149c1.718-.467 4-2.118 4-5.851 0-1.017-.309-1.962-.833-2.753l.126-.126c1.085-1.085 1.707-2.587 1.707-4.121zm-17 13c-1.654 0-3-1.346-3-3s1.346-3 3-3h6c0 3.733 2.282 5.384 4 5.851v.149zm11-2c-.03 0-3-.235-3-4 0-1.654 1.346-3 3-3s3 1.346 3 3c0 3.765-2.97 4-3 4z"/><path d="m35 22h12v2h-12z"/><path d="m21 22h12v2h-12z"/><path d="m52.12 44.534c1.855-2.306 2.88-5.164 2.88-8.139v-2.672c0-1.225-.15-2.448-.448-3.638l-.985-3.939c-.377-1.505-.567-3.055-.567-4.608v-12.646c0-2.749-1.465-5.337-3.823-6.752-1.243-.746-2.666-1.14-4.115-1.14h-4.926c-.862 0-1.714.139-2.53.411l-3.111 1.036c-2.213.738-4.743.852-6.68-.439-.989-.659-2.14-1.008-3.329-1.008-4.294 0-8.192 2.701-9.7 6.722l-2.655 7.079c-.75 2.002-1.131 4.101-1.131 6.24 0 2.743.648 5.491 1.876 7.947l1.504 3.008c.433.866.723 1.792.859 2.752l1.3 9.103c-7.323.868-15.539 2.626-15.539 6.149v6c0 5.537 20.277 7 31 7s31-1.463 31-7v-6c0-2.353-3.663-4.188-10.88-5.466zm-37.455-16.44c-1.089-2.18-1.665-4.618-1.665-7.053 0-1.898.338-3.762 1.004-5.537l2.655-7.079c1.217-3.245 4.362-5.425 7.827-5.425.793 0 1.56.232 2.219.672 1.303.869 2.819 1.328 4.387 1.328 1.373 0 2.73-.221 4.035-.655l3.111-1.037c.613-.204 1.251-.308 1.898-.308h4.926c1.087 0 2.154.296 3.086.854 1.759 1.056 2.852 2.987 2.852 5.038v12.646c0 1.716.211 3.429.627 5.093l.985 3.939c.257 1.032.388 2.092.388 3.154v2.672c0 2.722-1.003 5.335-2.823 7.358l-4.133 4.591c-.946 1.051-2.301 1.655-3.716 1.655h-4.404c-.658 0-1.324.048-1.98.141l-5.732.819c-.189.026-.378.04-.567.04h-5.241c-1.223 0-2.36-.547-3.123-1.502l-1.647-2.058c-.445-.557-.734-1.225-.836-1.933l-1.578-11.042c-.168-1.173-.521-2.305-1.051-3.363zm2.161 17.741c.159 1.045.587 2.033 1.246 2.856l1.646 2.057c1.144 1.431 2.851 2.252 4.685 2.252h5.241c.283 0 .566-.02.849-.06l5.733-.819c.562-.08 1.133-.121 1.698-.121h4.404c1.981 0 3.878-.845 5.202-2.317l3.042-3.379c8.48 1.358 10.428 3.16 10.428 3.696 0 1.697-10.236 5-29 5s-29-3.303-29-5c0-.845 3.423-2.93 13.826-4.165zm15.174 15.165c-18.764 0-29-3.303-29-5v-3.265c5.374 3.305 20.317 4.265 29 4.265s23.626-.96 29-4.265v3.265c0 1.697-10.236 5-29 5z"/><path d="m45 17h2v2h-2z"/><path d="m21 17h22v2h-22z"/><path d="m21 13h26v2h-26z"/><path d="m21 9h6v2h-6z"/><path d="m29 9h18v2h-18z"/></g></svg>